:version 1.10
:name ASF
:units
  mass 1
  length 1
  angle deg
:documentation
  ASF file generated by Kaydara
:root
  axis xyz
  order  tx ty tz rx ry rz
  position 0 0 0
  orientation 0 0 0
:bonedata
  begin
    id 1
    name RightUpLegDummy
    direction -1 2.30186e-007 8.31532e-007
    length 4.04083
    axis 0 0 0 xyz
  end
  begin
    id 2
    name RightUpLeg
    direction -0.000919234 -0.999985 0.00544864
    length 17.4221
    axis -3.80308 -0.00076134 -0.0523649 xyz
    dof rx ry rz
  end
  begin
    id 3
    name RightLeg
    direction -0.000919271 -0.999984 -0.00555045
    length 17.1239
    axis 4.00314 0.0181274 -0.183583 xyz
    dof rx ry rz
  end
  begin
    id 4
    name RightFoot
    direction -2.57843e-005 -4.04509e-007 1
    length 6.72091
    axis 8.18909e-005 -0.122003 -0.403008 xyz
    dof rx ry rz
  end
  begin
    id 5
    name RightToes
    direction 0.00116825 -0.014069 0.9999
    length 3.85082
    axis 0.000514414 0.540638 -0.356797 xyz
    dof rx ry rz
  end
  begin
    id 6
    name SpineDummy
    direction 0.0168869 0.966876 -0.254689
    length 6.99894
    axis 0 0 0 xyz
  end
  begin
    id 7
    name Spine
    direction -0.0132008 0.999903 0.00446247
    length 11.1999
    axis -0.00148109 0.00725429 0.756411 xyz
    dof rx ry rz
  end
  begin
    id 8
    name Spine1
    direction 0 0 0
    length 0
    axis -0.000934958 0.0245693 1.46543 xyz
    dof rx ry rz
  end
  begin
    id 9
    name HEadDummy
    direction -0.0255732 0.999672 0.00128215
    length 3.43865
    axis -0.000934958 0.0245693 1.46543 xyz
  end
  begin
    id 10
    name HEad
    direction -0.0472656 0.980052 0.19304
    length 5.12695
    axis -0.000934954 0.0245693 1.46543 xyz
    dof rx ry rz
  end
  begin
    id 11
    name LeftShoulder1Dummy
    direction 0.953098 0.301717 -0.023914
    length 3.68488
    axis -0.000934958 0.0245693 1.46543 xyz
  end
  begin
    id 12
    name LeftShoulder1
    direction 0.962466 0.271167 0.0112566
    length 3.13809
    axis -0.000934958 0.0245693 1.46543 xyz
    dof rx ry rz
  end
  begin
    id 13
    name LeftArm
    direction 0.999943 0.00455037 -0.00961766
    length 11.3419
    axis -23.1648 0.685459 1.22814 xyz
    dof rx ry rz
  end
  begin
    id 14
    name LeftForeArm
    direction 0.999332 0.0131969 0.0340885
    length 8.70632
    axis -9.90633 0.618216 0.0826942 xyz
    dof rx ry rz
  end
  begin
    id 15
    name LeftHand
    direction 0.994373 -0.0366703 0.0993905
    length 5.32135
    axis 0.00675269 0.680415 0.445699 xyz
    dof rx ry rz
  end
  begin
    id 16
    name RightShoulderDummy
    direction -0.967298 0.252589 -0.0230903
    length 3.68488
    axis -0.000934958 0.0245693 1.46543 xyz
  end
  begin
    id 17
    name RightShoulder
    direction -0.975062 0.221602 0.0120823
    length 3.13809
    axis 0.216257 0.0246515 1.45863 xyz
    dof rx ry rz
  end
  begin
    id 18
    name RightArm
    direction -0.99886 -0.00851186 -0.0469687
    length 10.3947
    axis -23.196 0.23503 -0.532632 xyz
    dof rx ry rz
  end
  begin
    id 19
    name RightForeArm
    direction -0.99909 0.00114866 0.0426317
    length 8.68355
    axis -9.91764 -0.134943 0.610517 xyz
    dof rx ry rz
  end
  begin
    id 20
    name RightHand
    direction -0.992888 -0.0489538 0.10852
    length 5.28593
    axis -0.00275396 -0.197403 0.246414 xyz
    dof rx ry rz
  end
  begin
    id 21
    name LeftUpLegDummy
    direction 1 -2.30186e-007 -8.31532e-007
    length 4.04083
    axis 0 0 0 xyz
  end
  begin
    id 22
    name LeftUpLeg
    direction -0.000920097 -1 2.79241e-006
    length 17.4221
    axis -3.48782 0.00143434 -0.0532288 xyz
    dof rx ry rz
  end
  begin
    id 23
    name LeftLeg
    direction -0.000920097 -1 2.7912e-006
    length 17.1239
    axis 3.68162 -0.00806512 -0.0529896 xyz
    dof rx ry rz
  end
  begin
    id 24
    name LeftFoot
    direction -2.57845e-005 -3.987e-007 1
    length 6.72091
    axis 3.02372e-005 -0.00147829 -0.214229 xyz
    dof rx ry rz
  end
  begin
    id 25
    name LeftToes
    direction 0.00813577 -0.00488255 0.999955
    length 3.85048
    axis 3.89895e-005 -0.0014783 -0.214229 xyz
    dof rx ry rz
  end
:hierarchy
  begin
    root RightUpLegDummy SpineDummy LeftUpLegDummy
    RightUpLegDummy RightUpLeg
    RightUpLeg RightLeg
    RightLeg RightFoot
    RightFoot RightToes
    SpineDummy Spine
    Spine Spine1
    Spine1 HEadDummy LeftShoulder1Dummy RightShoulderDummy
    HEadDummy HEad
    LeftShoulder1Dummy LeftShoulder1
    LeftShoulder1 LeftArm
    LeftArm LeftForeArm
    LeftForeArm LeftHand
    RightShoulderDummy RightShoulder
    RightShoulder RightArm
    RightArm RightForeArm
    RightForeArm RightHand
    LeftUpLegDummy LeftUpLeg
    LeftUpLeg LeftLeg
    LeftLeg LeftFoot
    LeftFoot LeftToes
  end

:SAMPLES-PER-SECOND 30
:FULLY-SPECIFIED
:DEGREES
133
root  -34.1931 35.0173 4.8918 -172.747 66.9998 -179.314
RightUpLeg  -3.56214 -13.4265 1.95713
RightLeg  1.72848 -0.458206 0.0161176
RightFoot  5.10218 0.0252534 0.117887
RightToes  -21.8709 -0.0912257 -0.19297
Spine  -2.67723 0.00845194 -0.263439
Spine1  -5.14619 0.241823 0.394834
HEad  -67.2074 -16.3834 -10.7986
LeftShoulder1  -1.94126e-019 -3.10601e-018 -2.51263e-017
LeftArm  14.0782 17.2612 -56.4259
LeftForeArm  163.039 -71.8302 -149.334
LeftHand  -0.202314 -5.62045 2.45374
RightShoulder  -4.96962e-017 0 -2.36833e-017
RightArm  -46.4294 -15.9688 71.6096
RightForeArm  68.6088 77.388 110.485
RightHand  0.664712 -15.9952 -7.91742
LeftUpLeg  -4.55579 6.46427 1.20108
LeftLeg  6.31445 16.7635 0.758941
LeftFoot  4.73454 -0.0413396 1.60925
LeftToes  -18.8354 1.89912e-006 4.45198e-008
134
root  -34.1665 35.0161 4.88419 -172.595 66.9914 -179.334
RightUpLeg  -3.65347 -13.4782 1.98018
RightLeg  1.65904 -0.391263 0.0142882
RightFoot  5.10175 0.0253592 0.12074
RightToes  -21.8626 -0.0911854 -0.193076
Spine  -2.64498 -0.0461964 -0.274271
Spine1  -5.09428 0.129172 0.367511
HEad  -67.8463 -16.2577 -9.62786
LeftShoulder1  -1.94126e-019 -3.10601e-018 -2.51263e-017
LeftArm  12.4015 18.4641 -57.1772
LeftForeArm  158.941 -71.8736 -148.65
LeftHand  0.219972 -6.03516 -1.90079
RightShoulder  -4.96962e-017 0 -2.36833e-017
RightArm  -47.0078 -17.273 72.0272
RightForeArm  67.3913 77.5571 108.581
RightHand  0.71286 -16.7245 -7.91925
LeftUpLeg  -4.53505 6.37623 1.18223
LeftLeg  6.01642 16.8403 0.675875
LeftFoot  4.88586 -0.044994 1.66028
LeftToes  -19.0165 1.89912e-006 4.45198e-008
135
root  -34.1431 35.0159 4.87519 -172.496 66.9044 -179.384
RightUpLeg  -3.73796 -13.5531 1.99183
RightLeg  1.62265 -0.408746 0.0151583
RightFoot  5.11161 0.0255857 0.121363
RightToes  -21.951 -0.0911618 -0.1932
Spine  -2.63774 -0.0983629 -0.268714
Spine1  -5.08461 0.0286286 0.374847
HEad  -68.2737 -16.4991 -8.25254
LeftShoulder1  -1.94126e-019 -3.10601e-018 -2.51263e-017
LeftArm  11.5602 18.9123 -57.5155
LeftForeArm  156.02 -71.9259 -148.115
LeftHand  0.597468 -6.11796 -5.68207
RightShoulder  -4.96962e-017 0 -2.36833e-017
RightArm  -47.0995 -18.5324 72.1235
RightForeArm  67.1242 77.5471 108.599
RightHand  0.964107 -18.6617 -8.94925
LeftUpLeg  -4.49272 6.24314 1.15738
LeftLeg  5.68284 16.8758 0.580339
LeftFoot  5.04261 -0.0486599 1.71011
LeftToes  -19.0942 1.89912e-006 4.45198e-008
136
root  -34.1241 35.0161 4.86156 -172.461 66.8043 -179.466
RightUpLeg  -3.83492 -13.5786 1.98075
RightLeg  1.68887 -0.483586 0.0173107
RightFoot  5.02981 0.0262129 0.115716
RightToes  -21.8069 -0.0911536 -0.193342
Spine  -2.64964 -0.1552 -0.24527
Spine1  -5.11058 -0.0824794 0.414446
HEad  -68.5832 -16.827 -7.18947
LeftShoulder1  -1.94126e-019 -3.10601e-018 -2.51263e-017
LeftArm  11.1048 18.9923 -57.6233
LeftForeArm  153.072 -72.2413 -147.081
LeftHand  0.801945 -5.91602 -7.88497
RightShoulder  -4.96962e-017 0 -2.36833e-017
RightArm  -46.6454 -19.7808 72.0743
RightForeArm  71.3257 77.052 113.992
RightHand  1.57756 -21.999 -11.334
LeftUpLeg  -4.45032 6.09253 1.10995
LeftLeg  5.41217 16.9394 0.503563
LeftFoot  5.15627 -0.0517738 1.74997
LeftToes  -19.1234 1.89912e-006 4.45198e-008
137
root  -34.1053 35.0166 4.84209 -172.414 66.6911 -179.513
RightUpLeg  -3.91172 -13.5729 1.96342
RightLeg  1.75899 -0.600581 0.0206714
RightFoot  4.95303 0.0270407 0.106619
RightToes  -21.7108 -0.0911592 -0.193496
Spine  -2.67589 -0.269714 -0.186925
Spine1  -5.16164 -0.31026 0.533609
HEad  -68.6187 -17.0038 -6.39415
LeftShoulder1  -1.94126e-019 -3.10601e-018 -2.51263e-017
LeftArm  10.0599 19.1774 -57.9543
LeftForeArm  148.336 -73.1276 -144.534
LeftHand  0.872895 -5.65562 -8.82729
RightShoulder  -4.96962e-017 0 -2.36833e-017
RightArm  -45.1691 -20.8777 71.9039
RightForeArm  79.8704 76.0664 122.177
RightHand  2.31494 -24.5847 -14.0731
LeftUpLeg  -4.42799 6.02261 1.07828
LeftLeg  5.21488 16.9217 0.445611
LeftFoot  5.17691 -0.0526588 1.75377
LeftToes  -19.0371 1.89912e-006 4.45198e-008
